# xmcd CD database file
# Copyright (C) 1993-1998 Ti Kan
# 
# Track frame offsets:
#     150
#     15867
#     31070
#     43385
#     58567
#     75445
#     88200
#     101647
#     113237
#     123795
#     135220
# 
# Disc length: 1962 seconds
# 
# Revision: 1
# Processed by: cddbd v1.4b41PL1 Copyright (c) Steve Scherf et al.
# Submitted via: DiscPlay 4.0.4
# 
DISCID=7b07a80b
DTITLE=John Gracie - Standing In The Dark
DYEAR=1900
DGENRE=
TTITLE0=Standing In The Dark
TTITLE1=Walking Wounded
TTITLE2=Lady And The Fool
TTITLE3=I Do Go On (Don't I)
TTITLE4=Water Under The Bridge I Never Burned
TTITLE5=I Never Knew
TTITLE6=I Want To Dance With You Again
TTITLE7=You Didn't Do Nothin
TTITLE8=Home
TTITLE9=My Baby's Got Roy Roger's Eyes
TTITLE10=That's All That Matters To Me
EXTD=
EXTT0=
EXTT1=
EXTT2=
EXTT3=
EXTT4=
EXTT5=
EXTT6=
EXTT7=
EXTT8=
EXTT9=
EXTT10=
PLAYORDER=
